<svg height="512pt" viewBox="-121 0 512 512" width="512pt" xmlns="http://www.w3.org/2000/svg"><path d="m173.28125 0h-75.960938c-53.660156 0-97.320312 43.660156-97.320312 97.320312v317.359376c0 53.660156 43.660156 97.320312 97.320312 97.320312h75.960938c53.664062 0 97.324219-43.660156 97.324219-97.320312v-317.359376c0-53.660156-43.660157-97.320312-97.324219-97.320312zm-75.960938 30.253906h75.960938c36.980469 0 67.066406 30.085938 67.066406 67.066406v65.175782l-104.980468 16.816406-105.113282-17.785156v-64.207032c0-36.980468 30.085938-67.066406 67.066406-67.066406zm75.960938 451.492188h-75.960938c-36.980468 0-67.066406-30.085938-67.066406-67.066406v-222.46875l89.921875 15.214843v216.65625h-27.601562c-8.351563 0-15.125 6.773438-15.125 15.128907 0 8.351562 6.773437 15.125 15.125 15.125h85.453125c8.355468 0 15.128906-6.773438 15.128906-15.125 0-8.355469-6.773438-15.128907-15.128906-15.128907h-27.597656v-192.414062l17.4375 17.78125c2.964843 3.019531 6.882812 4.53125 10.800781 4.53125 3.824219 0 7.648437-1.4375 10.59375-4.328125 5.964843-5.847656 6.054687-15.425782.207031-21.390625l-22.867188-23.3125 73.746094-11.816407v221.542969c0 36.984375-30.085937 67.070313-67.066406 67.070313zm0 0"/><path d="m88.566406 159.964844h93.46875c22.613282 0 41.007813-18.394532 41.007813-41.007813v-29.152343c0-22.609376-18.394531-41.007813-41.007813-41.007813h-93.46875c-22.609375 0-41.003906 18.394531-41.003906 41.007813v29.152343c0 22.613281 18.394531 41.007813 41.003906 41.007813zm-10.75-70.160156c0-5.929688 4.824219-10.753907 10.75-10.753907h93.46875c5.929688 0 10.753906 4.824219 10.753906 10.753907v29.152343c0 5.929688-4.824218 10.753907-10.753906 10.753907h-93.46875c-5.925781 0-10.75-4.824219-10.75-10.753907zm0 0"/></svg>