<?xml version="1.0" encoding="iso-8859-1"?>
<!-- Generator: Adobe Illustrator 19.0.0, SVG Export Plug-In . SVG Version: 6.00 Build 0)  -->
<svg version="1.1" id="Capa_1" xmlns="http://www.w3.org/2000/svg" xmlns:xlink="http://www.w3.org/1999/xlink" x="0px" y="0px"
	 viewBox="0 0 512.002 512.002" style="enable-background:new 0 0 512.002 512.002;" xml:space="preserve">
<g>
	<g>
		<path d="M499.653,62.505c-7.064-4.748-15.987-5.658-23.864-2.439l-48.095,19.645c-1.237,0.505-2.541,0.761-3.875,0.761h-54.811
			c-25.744,0-46.688,20.944-46.688,46.688v22.208c-1.217-0.245-2.473-0.376-3.76-0.376h-3.257c-10.487,0-19.019,8.531-19.019,19.018
			v22.842c0,10.487,8.532,19.018,19.019,19.018h3.257c1.287,0,2.544-0.131,3.76-0.376v6.676c-1.217-0.245-2.473-0.376-3.76-0.376
			h-3.257c-10.487,0-19.019,8.531-19.019,19.018v22.842c0,10.487,8.532,19.018,19.019,19.018h3.257c1.287,0,2.544-0.131,3.76-0.376
			v6.676c-1.217-0.245-2.473-0.376-3.76-0.376h-3.257c-10.487,0-19.019,8.531-19.019,19.018v22.843
			c0,10.487,8.532,19.018,19.019,19.018h3.257c1.287,0,2.544-0.131,3.76-0.376v25.989c0,17.92-14.58,32.5-32.5,32.5
			s-32.5-14.58-32.5-32.5V233.361c0-10.368-2.301-20.826-6.654-30.24l-34.813-75.282l10.483-10.483
			c3.72-3.719,5.77-8.678,5.77-13.963c0-5.283-2.05-10.242-5.768-13.96l-2.45-2.452c-7.699-7.698-20.226-7.696-27.925,0
			l-47.09,47.089c-2.979,2.98-2.979,7.81,0,10.789c2.979,2.977,7.809,2.979,10.789,0l47.09-47.089c1.72-1.72,4.626-1.72,6.344-0.002
			l2.451,2.452c0.837,0.837,1.299,1.965,1.299,3.172c0,1.208-0.462,2.336-1.3,3.173L74.368,247.747
			c-0.837,0.837-1.964,1.299-3.172,1.299c-1.207,0-2.336-0.462-3.173-1.3l-2.451-2.45c-0.837-0.837-1.299-1.965-1.299-3.173
			s0.462-2.334,1.3-3.172l69.951-69.951c2.979-2.98,2.979-7.81,0-10.789c-2.98-2.978-7.81-2.978-10.789,0l-69.95,69.951
			c-3.72,3.719-5.77,8.678-5.77,13.962s2.05,10.243,5.769,13.963l2.45,2.45c3.72,3.72,8.679,5.768,13.963,5.768
			s10.242-2.05,13.962-5.769l8.53-8.53l35.431,35.431c10.727,10.726,16.635,24.988,16.635,40.158v70.773
			c0,63.76,51.872,115.632,115.632,115.632c63.759,0,115.631-51.872,115.631-115.632V230.105c0-4.214-3.415-7.629-7.629-7.629
			c-4.214,0-7.629,3.415-7.629,7.629v166.263c0,55.346-45.028,100.374-100.374,100.374c-55.346,0-100.373-45.028-100.373-100.374
			v-70.773c0-19.245-7.495-37.338-21.103-50.948l-35.128-35.127l99.771-99.771l32.267,69.776c3.431,7.422,5.245,15.663,5.245,23.837
			v135.722c0,26.334,21.424,47.758,47.758,47.758c26.333,0,47.758-21.424,47.758-47.758v-44.63V301.61v-43.958V234.81V190.85
			v-22.842v-40.849c0-17.33,14.099-31.43,31.43-31.43h52.256l6.983,18.985h-41.66c-13.69,0-24.828,11.138-24.828,24.829v54.348
			c0,4.214,3.415,7.629,7.629,7.629c4.214,0,7.629-3.415,7.629-7.629v-54.348c0-5.277,4.294-9.571,9.57-9.571h48.938
			c1.637,0,3.252-0.158,4.839-0.464c0.006-0.001,0.011-0.002,0.017-0.003c1.69-0.328,3.346-0.825,4.954-1.495l49.907-20.794
			c9.534-3.972,15.694-13.213,15.694-23.542C510.936,75.165,506.718,67.25,499.653,62.505z M322.321,324.454
			c0,2.038-1.721,3.76-3.76,3.76h-3.257c-2.039,0-3.761-1.721-3.761-3.76V301.61c0-2.038,1.722-3.76,3.761-3.76h3.257
			c2.038,0,3.76,1.721,3.76,3.76V324.454z M322.321,257.652c0,2.039-1.721,3.76-3.76,3.76h-3.257c-2.039,0-3.761-1.721-3.761-3.76
			V234.81c0-2.038,1.722-3.76,3.761-3.76h3.257c2.038,0,3.76,1.721,3.76,3.76V257.652z M322.321,190.85
			c0,2.038-1.721,3.76-3.76,3.76h-3.257c-2.039,0-3.761-1.721-3.761-3.76v-22.842c0-2.038,1.722-3.76,3.761-3.76h3.257
			c2.038,0,3.76,1.721,3.76,3.76V190.85z M489.373,93.133l-45.789,19.078l-7.198-19.568l45.173-18.451
			c3.211-1.312,6.706-0.955,9.586,0.98c2.881,1.935,4.533,5.034,4.533,8.504C495.678,87.824,493.203,91.536,489.373,93.133z"/>
	</g>
</g>
<g>
	<g>
		<path d="M101.193,73.407c0-2.347-1.08-4.562-2.927-6.008c-1.847-1.445-4.259-1.961-6.536-1.398L38.517,79.181
			c-3.405,0.843-5.795,3.899-5.795,7.405v55.13c-2.542-0.738-5.301-1.14-8.2-1.14c-13.154,0-23.458,8.264-23.458,18.814
			s10.303,18.814,23.458,18.814s23.458-8.264,23.458-18.814V92.556l37.955-9.4v47.106c-2.542-0.739-5.301-1.14-8.2-1.14
			c-13.154,0-23.458,8.264-23.458,18.814s10.303,18.814,23.458,18.814c13.154,0,23.458-8.264,23.458-18.814
			c0-0.348-0.012-0.692-0.035-1.034c0.02-0.227,0.035-0.457,0.035-0.689V73.407z M24.523,162.946c-5.292,0-8.2-2.671-8.2-3.556
			s2.907-3.556,8.2-3.556s8.2,2.671,8.2,3.556S29.815,162.946,24.523,162.946z M77.737,151.492c-5.292,0-8.2-2.671-8.2-3.556
			s2.907-3.556,8.2-3.556s8.2,2.671,8.2,3.556S83.028,151.492,77.737,151.492z"/>
	</g>
</g>
<g>
	<g>
		<path d="M156.93,0c-4.214,0-7.629,3.415-7.629,7.629v55.13c-2.542-0.738-5.301-1.14-8.2-1.14
			c-13.153,0-23.457,8.264-23.457,18.814s10.303,18.814,23.457,18.814c13.154,0,23.458-8.264,23.458-18.814V7.629
			C164.559,3.415,161.144,0,156.93,0z M141.101,83.989c-5.29,0-8.199-2.671-8.199-3.556c0-0.885,2.908-3.556,8.199-3.556
			c5.291,0,8.2,2.671,8.2,3.556C149.301,81.318,146.394,83.989,141.101,83.989z"/>
	</g>
</g>
<g>
</g>
<g>
</g>
<g>
</g>
<g>
</g>
<g>
</g>
<g>
</g>
<g>
</g>
<g>
</g>
<g>
</g>
<g>
</g>
<g>
</g>
<g>
</g>
<g>
</g>
<g>
</g>
<g>
</g>
</svg>
