<svg height="511pt" viewBox="1 -57 511.999 511" width="511pt" xmlns="http://www.w3.org/2000/svg"><path d="m366.878906 255.980469c.179688 0 .359375-.003907.542969-.007813 9.214844-.191406 17.050781-5.222656 19.496094-12.515625 1.316406-3.925781-.796875-8.179687-4.722657-9.496093-3.925781-1.316407-8.179687.796874-9.496093 4.726562-.210938.621094-2.179688 2.21875-5.589844 2.289062-.078125 0-.15625.003907-.230469.003907-3.273437 0-5.222656-1.457031-5.453125-2.058594-1.476562-3.867187-5.8125-5.804687-9.683593-4.324219-3.871094 1.480469-5.804688 5.816406-4.324219 9.6875 2.695312 7.042969 10.472656 11.695313 19.460937 11.695313zm0 0"/><path d="m159.195312 179.332031c-4.171874-.132812-7.597656 3.125-7.726562 7.265625l-.453125 14.726563c-.078125 2.621093.867187 5.117187 2.664063 7.023437 1.796874 1.910156 4.226562 3.007813 6.847656 3.085938l4.851562.152344c.078125 0 .15625.003906.234375.003906 4.035157 0 7.367188-3.210938 7.492188-7.269532.125-4.03125-2.953125-7.417968-6.9375-7.710937l.292969-9.550781c.128906-4.140625-3.125-7.597656-7.265626-7.726563zm0 0"/><path d="m185.4375 215.929688c-3.429688-2.320313-8.09375-1.421876-10.414062 2.007812-2.90625 4.296875-9.140626 6.914062-15.90625 6.730469-6.757813-.210938-12.828126-3.226563-15.464844-7.691407-2.101563-3.566406-6.699219-4.75-10.269532-2.644531-3.566406 2.105469-4.75 6.703125-2.644531 10.269531 5.265625 8.921876 15.964844 14.6875 27.917969 15.058594.402344.011719.808594.015625 1.207031.015625 11.484375 0 21.972657-5.039062 27.582031-13.332031 2.320313-3.429688 1.421876-8.09375-2.007812-10.414062zm0 0"/><path d="m186.90625 173.976562-.207031 6.707032c-.125 4.144531 3.125 7.601562 7.265625 7.730468.082031.003907.15625.003907.234375.003907 4.035156 0 7.367187-3.207031 7.492187-7.269531l.207032-6.707032c.128906-4.144531-3.125-7.601562-7.261719-7.730468-4.15625-.136719-7.601563 3.125-7.730469 7.265624zm0 0"/><path d="m126.550781 186.339844c.078125.003906.15625.003906.234375.003906 4.035156 0 7.367188-3.207031 7.492188-7.269531l.203125-6.707031c.128906-4.140626-3.125-7.601563-7.265625-7.726563-4.179688-.152344-7.597656 3.125-7.726563 7.265625l-.207031 6.707031c-.125 4.140625 3.128906 7.601563 7.269531 7.726563zm0 0"/><path d="m141.195312 132.652344 41.070313 1.261718c.078125.003907.15625.003907.234375.003907 4.035156 0 7.367188-3.207031 7.492188-7.269531.128906-4.140626-3.125-7.601563-7.265626-7.726563l-41.070312-1.261719c-4.136719-.140625-7.597656 3.125-7.726562 7.265625-.125 4.140625 3.128906 7.597657 7.265624 7.726563zm0 0"/><path d="m180.449219 147.613281c.128906-4.140625-3.125-7.601562-7.265625-7.726562l-22.945313-.707031c-4.164062-.144532-7.601562 3.128906-7.726562 7.269531-.128907 4.140625 3.125 7.597656 7.265625 7.726562l22.945312.703125c.082032.003906.15625.003906.234375.003906 4.039063 0 7.371094-3.207031 7.492188-7.269531zm0 0"/><path d="m498.265625.5h-484.53125c-7.574219 0-13.734375 6.160156-13.734375 13.734375v369.238281c0 7.574219 6.160156 13.734375 13.734375 13.734375h484.53125c7.574219 0 13.734375-6.160156 13.734375-13.734375v-369.238281c0-7.574219-6.160156-13.734375-13.734375-13.734375zm-218.097656 312.414062c1.300781-.648437 2.605469-1.28125 3.921875-1.902343 3.847656 5.167969 9.945312 8.039062 17.527344 8.109375 1.015624 5.191406 4.03125 9.609375 8.292968 11.972656 4.121094 2.53125 9.722656 3.398438 15.117188 1.734375 2.492187 4.828125 6.855468 8.535156 12.316406 9.941406 5.109375 1.394531 11.347656.582031 16.476562-2.84375 3.773438 4.109375 9.101563 6.628907 14.898438 6.628907.191406 0 .382812-.003907.574219-.007813 6.019531-.082031 11.46875-2.859375 15.183593-7.261719 5.265626 3.207032 11.53125 3.761719 16.582032 2.152344 5.394531-1.632812 9.601562-5.519531 11.894531-10.445312 5.574219 1.46875 11.269531.285156 15.296875-2.550782.058594-.042968.121094-.085937.179688-.132812 2.949218-2.207032 5.128906-5.210938 6.375-8.597656 2.035156-.117188 4.253906-.550782 6.507812-1.527344 3.316406-1.4375 7.660156-4.515625 10.742188-11.089844 3.457031 1.4375 6.875 2.96875 10.238281 4.589844 2.429687 1.167968 4.683593 2.632812 6.734375 4.363281v35.601563h-175.863282l.09375-3.035157c.414063-13.4375-4.398437-26.121093-13.089843-35.699219zm124.132812-120.710937c.144531-4.195313-3.84375-8.054687-8.03125-7.773437-4.1875.285156-7.621093 4.644531-6.914062 8.78125-3.320313.875-6.488281 2.324218-9.324219 4.257812-3.742188-3.445312-8.839844-5.375-13.925781-5.273438-5.085938.105469-10.101563 2.238282-13.703125 5.832032-2.925782-1.808594-6.160156-3.113282-9.515625-3.847656.53125-4.167969-3.085938-8.378907-7.28125-8.480469-4.199219-.105469-8.019531 3.921875-7.695313 8.109375-4.652344.757812-9.132812 2.550781-13.027344 5.207031.191407-.140625-.058593-11.996094-.058593-15.394531.101562-1.046875.898437-1.695313 1.734375-2.257813 1.664062-1.113281 3.839844-1.214843 5.773437-1.289062 7.90625-.308594 15.839844-1.402344 23.3125-4 7.476563-2.597657 14.503907-6.75 19.839844-12.59375 10.933594 10.890625 27.195313 14.792969 42.625 14.695312 1.667969-.011719 3.367187-.058593 4.980469.371094 1.609375.433594 3.164062 1.429687 3.824218 2.964844.429688.992187.574219 11.320312.625 15.382812-3.980468-2.539062-8.546874-4.15625-13.238281-4.691406zm7.085938 19.460937c.027343 1.382813-2.417969 2.660157-3.390625 3.171876-5.476563 2.890624-13.746094 3.015624-19.113282-.199219-1.71875-1.03125-2.375-2.050781-2.382812-2.453125-.035156-1.667969 3.191406-3.125 4.355469-3.640625 3.964843-1.746094 9.183593-2.050781 13.402343-1.125 1.636719.359375 7.078126 1.84375 7.128907 4.246093zm-64.855469 1.351563c.007812.402344-.605469 1.449219-2.277344 2.550781-5.46875 3.597656-14.621094 3.78125-20.226562.421875-1.71875-1.027343-2.375-2.046875-2.382813-2.449219-.007812-.402343.601563-1.449218 2.277344-2.550781 5.472656-3.597656 14.601563-3.792969 20.226563-.421875 1.71875 1.027344 2.371093 2.050782 2.382812 2.449219zm-30.210938 15.84375c10.582032 6.339844 25.855469 6.023437 36.171876-.757813 5.863281-3.855468 9.15625-9.46875 9.035156-15.398437-.003906-.082031-.003906-.164063-.007813-.246094 0-.058593 0-.113281 0-.167969-.058593-2.753906 2.132813-5.039062 4.882813-5.09375 2.71875-.027343 5.035156 2.132813 5.09375 4.882813 0 .046875.003906.09375.007812.140625v.277344c.125 5.929687 3.648438 11.398437 9.671875 15.007812 9.617188 5.761719 24.382813 5.816406 34.285157.351563.300781-.164063 1.925781-.875 1.976562-1.203125-2.125 13.230468-10.097656 22.386718-17.011719 28.015625-8.851562 7.214843-21.054687 13.21875-32.703125 13.21875-.019531 0-.035156 0-.054687 0-11.699219.652343-24.078125-4.964844-33.273438-11.839844-7.132812-5.328125-15.46875-14.128906-18.15625-27.242187.023438.019531.050781.035156.082031.054687zm29.675782 50.144531c7.105468 2.507813 14.34375 3.890625 20.996094 3.890625.3125 0 .625-.003906.9375-.011719h.058593c6.917969-.144531 14.460938-1.847656 21.800781-4.792968 3.691407 6.722656 9.585938 12.0625 16.695313 15.078125-7.453125 5.117187-17.171875 10.945312-38.046875 11.382812-19.597656.414063-29.371094-5.082031-37.804688-10.117187 6.664063-3.34375 12.070313-8.785156 15.363282-15.429688zm22.753906 40.542969c26.871094-.5625 38.992188-8.980469 47.839844-15.128906 6.417968-4.460938 9.078125-6.308594 15.386718-4.496094.011719.003906.027344.003906.035157.007813.179687.054687 4.152343 1.289062 5.90625 1.875.214843.074218-2.226563 2.398437-2.617188 2.574218-2.078125.9375-3.714843-.238281-5.699219-.617187-2.003906-.386719-4.078124.128906-5.730468 1.3125-2.261719 1.625-3.304688 4.4375-2.917969 7.199219.664063 4.746093-4.414063 5.308593-7.035156 2.257812-2.359375-2.757812-6.308594-3.601562-9.597657-2.054688-3.289062 1.550782-5.15625 5.128907-4.539062 8.703126.414062 2.398437-.777344 5.242187-3.28125 5.976562-2.746094.808594-5.492188-1.089844-6.621094-3.515625-1.53125-3.296875-5.109375-5.183594-8.679687-4.59375-3.574219.589844-6.347657 3.527344-6.738281 7.136719-.730469 6.722656-10.15625 6.988281-11.179688.226562-.546875-3.585937-3.4375-6.402344-7.03125-6.839844-.328125-.039062-.652344-.0625-.976562-.0625-3.234376 0-6.230469 1.957032-7.5 5.007813-1.015626 2.4375-3.6875 4.449219-6.457032 3.789063-2.597656-.617188-3.867187-3.320313-3.542968-5.820313.472656-3.601563-1.539063-7.101563-4.890626-8.511719-3.355468-1.410156-7.261718-.402344-9.503906 2.445313-.980468 1.246093-2.5625 2.292969-4.21875 2.242187-1.90625-.0625-2.835937-1.417968-2.914062-3.203125-.144532-3.277343-1.625-6.382812-4.0625-8.523437-1.457032-1.28125-3.3125-2.222656-5.25-2.648438-2.128906-.46875-4.21875-.023437-6.363282-.207031.605469-.222656 3.589844-1.292969 4.132813-1.480469 6.332031-2.101562 9.445313-.542968 17.480469 4.261719 9.3125 5.570313 22.085937 13.210937 46.566406 12.6875zm-64.046875-.546875c-.003906 0-.007813 0-.007813 0zm164.097656-20.828125c-10.453125-5.035156-21.386719-9.28125-32.492187-12.613281-.019532-.007813-.042969-.011719-.0625-.019532-6.625-1.984374-13.417969-3.679687-20.195313-5.039062-5.527343-1.105469-10.214843-4.566406-12.929687-9.292969 1.449218-.933593 2.867187-1.914062 4.242187-2.9375 18.714844-5.140625 32.445313-14.300781 41.945313-27.96875 10.953125-15.765625 15.996094-37.101562 15.40625-65.226562-.472656-22.644531-11.40625-43.199219-30.789063-57.871094-9.804687-7.425781-21.4375-13.101563-34.195312-16.8125.121093-1.328125.167969-2.664063.140625-4.007813-.40625-19.191406-16.832032-35.230468-36.265625-34.777343-19.585938.410156-35.1875 16.675781-34.777344 36.261719.027344 1.269531.121094 2.53125.28125 3.78125-8.949219 2.964843-17.304687 6.910156-24.867187 11.769531-3.480469 2.242187-4.488282 6.882812-2.25 10.367187 2.242187 3.484375 6.882812 4.488282 10.367187 2.25 14.429687-9.28125 32.382813-14.71875 51.921875-15.730468 23.320312.230468 44.828125 6.925781 60.589844 18.855468 15.875 12.019532 24.46875 28.003906 24.847656 46.226563.074219 3.570312.046875 6.972656-.074219 10.222656-1.132812-2.820313-2.863281-5.390625-5.121093-7.558594-4.195313-4.023437-9.984376-6.203125-15.808594-6.050781-.761719-1.085938-1.628906-2.105469-2.609375-3.046875-3.910157-3.757813-9.042969-5.777344-14.496094-5.648437-32.695313.644531-38.652344-14.40625-39.148437-15.847657-.488282-2.195312-1.902344-3.894531-3.917969-4.902343-2.191407-1.097657-5.1875-.964844-7.273438.320312-1.820312 1.121094-3.039062 2.792969-3.414062 4.886719-.433594 1.460937-5.773438 16.785156-38.453125 17.46875-5.4375.113281-10.496094 2.335937-14.25 6.253906-.933594.976563-1.761719 2.03125-2.472656 3.152344-5.8125.121093-11.523438 2.503906-15.542969 6.703125-2.167969 2.257812-3.789063 4.902344-4.804688 7.765625-.257812-3.238281-.425781-6.640625-.5-10.207031-.230469-11.003907 2.566407-21.34375 8.308594-30.730469 2.164063-3.535157 1.050781-8.152344-2.484375-10.3125-3.53125-2.160157-8.148438-1.050781-10.3125 2.484375-7.261719 11.875-10.796875 24.953125-10.507812 38.867187.585937 28.128907 6.515624 49.234375 18.117187 64.527344 10.066406 13.261719 24.167969 21.839844 43.078125 26.191406 1.417969.964844 2.875 1.886719 4.359375 2.757813-2.511719 4.835937-7.050781 8.492187-12.527344 9.828125-6.726562 1.640625-13.460937 3.621093-20.027343 5.898437-10.957032 3.792969-22.285157 8.804688-32.523438 14.273438 0 0 .195312-.105469 0 0-.164062-.089844 0 0 0 0-15.84375-8.664063-33.191406-15.835938-50.617188-20.792969-.449218-.398437-10.226562-8.585937-14.753906-12.207031-.039062-.03125-.074218-.0625-.113281-.089844-2.515625-1.976562-5.4375-3.109375-8.417969-3.40625l.128906-4.191406c3.058594-1.417969 6.125-3.039063 9.132813-4.886719 19.265625-11.820313 29.78125-28.847656 30.40625-49.21875l.101563-3.074219c10.992187-1.507812 19.644531-10.789062 19.996093-22.246094l.226563-7.410156c.191406-6.1875-1.960938-12.496094-6.914063-17.242187-.222656-.214844.214844.214843 0 0 1.210938-1.523438 2.28125-3.304688 3.136719-5.382813 6.039062-14.660156-.398438-42.535156-18.0625-57.898437-24.105469-20.960938-52.222656-15.828125-59.539062-14.007813-5.59375-.824218-11.316407-1.003906-16.953126-.519531-7.191406-2.269531-34.933593-9.113281-60.28125 10.324219-18.570312 14.25-26.710937 41.679687-21.582031 56.683594.726563 2.125 1.683594 3.96875 2.804688 5.5625-.234375.199218.226562-.207032 0 0-5.050781 4.546874-7.777344 10.597656-7.964844 16.785156l-.230469 7.40625c-.1875 6.1875 2.039063 12.078125 6.273438 16.585937 3.34375 3.558594 7.625 5.921875 12.320312 6.851563l-.085937 3.058594c-.628907 20.386718 8.820312 38.023437 27.328125 51.007812 2.886718 2.027344 5.847656 3.835938 8.816406 5.4375l-.128906 4.191406c-2.992188.117188-5.972656 1.070313-8.601563 2.882813-.046875.03125-.09375.066406-.136719.101562l-15.578124 11.289063c-17.667969 3.878906-34.878907 9.722656-51.179688 17.378906-1.324219.621094-2.613281 1.296875-3.871094 2.019531v-251.621093h426.058594v252.226562c-.078125-.035156-.15625-.074219-.230469-.109375zm-35.863281-76.15625c4.472656-.691406 8.488281-2.746094 11.621094-5.71875-3.742188 11.035156-9.238282 18.855469-15.582032 24.507813 2.359376-5.957032 3.703126-12.269532 3.960938-18.789063zm-.554688-34.359375c.636719.304688 3.554688 1.976562 3.832032 5.960938l.140625 6.746093c.054687 2.644531-1.421875 4.972657-3.613281 6.132813zm-47.503906-90.613281c-6.710937-1.09375-13.636718-1.679688-20.691406-1.738281-.144531-.003907-.289062 0-.433594.007812-6.820312.34375-13.484375 1.167969-19.925781 2.457031 0-.070312-.003906-.144531-.003906-.214843-.238281-11.316407 8.777343-20.71875 20.09375-20.953126 5.492187-.117187 10.683593 1.910157 14.640625 5.707032 3.957031 3.796875 6.199218 8.90625 6.3125 14.390625.003906.113281.007812.230469.007812.34375zm-84.332031 127.742187c.527344 6.5 2.136719 12.75 4.742187 18.605469-6.574218-5.378906-12.386718-12.957031-16.585937-23.816406 3.359375 2.929687 7.460937 4.726562 11.84375 5.210937zm-.882813-34.359375s.429688 18.839844.429688 18.84375c-.003906-.089843-3.34375-2.082031-3.867188-5.976562 0 0-.140624-6.742188-.140624-6.75-.035157-1.734375 1.246093-5.066407 3.578124-6.117188zm-21.472656 157.726563c.015625 1.171875 0 2.339844-.035156 3.5h-26.175781l1.210937-39.460938c6.375 3.226563 12.378906 6.542969 16.949219 12.191406 5.554687 6.859376 7.9375 15.042969 8.050781 23.769532zm-211.871094-8.621094c-4.175781-.132812-7.601562 3.128906-7.726562 7.265625l-.148438 4.855469h-15.472656v-35.167969c2.96875-3.015625 6.40625-5.445313 10.246094-7.25 2.1875-1.03125 4.394531-2.023437 6.621094-2.980469l-.1875 6.164063c-.128906 4.140625 3.125 7.597656 7.265625 7.726562.078125.003907.15625.003907.234375.003907 4.035156 0 7.367187-3.207032 7.492187-7.269532l.382813-12.535156c7.425781-2.585938 14.992187-4.792969 22.660156-6.605469l36.964844 57.914063h-61.203125l.136719-4.390625c.128906-4.144531-3.125-7.601563-7.265626-7.730469zm21.078126-197.265625c-2.902344-8.492187 2.882812-29.464844 16.519531-39.925781 7.445312-5.710938 15.175781-8.472656 22.1875-9.613282-9.660157 7.121094-18.144531 16.785157-25.144531 28.75-5.511719 9.414063-8.980469 18.324219-10.941407 24.234376-1.074219-.714844-2.058593-1.800782-2.621093-3.445313zm.089843 20.628906c-.105469 3.65625-.691406 21.695313-.691406 21.695313-2.613281-1.175782-4.070313-4.542969-3.988281-7.253906 0 0 .226562-7.40625.226562-7.410157.089844-2.945312 1.824219-5.691406 4.453125-7.03125zm13.824219 40.921875 1.390625-48.214844c1.605469-6.039062 14.753906-50.925781 52.5-60.4375 5.238281-.542968 10.574219-.382812 15.765625.488282 16.304688 5.183594 29.40625 17.289062 38.953125 35.988281 6.535156 12.808594 9.152344 24.632813 9.734375 27.542969l-1.574219 48.234375c-.46875 15.308593-8.296875 27.730469-23.257812 36.910156-12.664063 7.765625-27.859375 11.226563-36.660157 11.144531-8.808593-.472656-23.742187-4.847656-35.902343-13.375-14.371094-10.082031-21.417969-22.957031-20.949219-38.28125zm134.441406-56.992187c-.664062 1.609375-1.707031 2.632812-2.824218 3.28125-1.597657-6.019531-4.515626-15.128907-9.4375-24.863281-6.25-12.371094-14.128907-22.539063-23.332032-30.238282 6.929688 1.570313 14.480469 4.800782 21.554688 10.957032 12.96875 11.277343 17.457031 32.566406 14.039062 40.863281zm2.652344 27.875-.226562 7.410156c-.09375 3.09375-1.914063 5.726563-4.492188 7.039063l.707031-21.734376c2.476563 1.46875 4.109375 4.207032 4.011719 7.285157zm-47.34375 106.707031c.425781-.351562 1.027344-.363281 1.46875-.039062 3.527344 2.882812 7.277344 5.960937 10.171875 8.359374l-15.683594 20.683594-17.515625-11.390625zm-33.941406 8.359375-20.003906-18.5.15625-5.007813c7.839843 2.652344 15.007812 3.941407 20.292968 4.203126.09375.003906.648438.011718.835938.011718 5.234375 0 12.246094-.863281 19.957031-2.953125l-.15625 5.023438zm-33.363282-10.429687 20.433594 18.90625-18.976562 10.742187-13.917969-21.804687 11.003906-7.972657c.453125-.289062 1.058594-.238281 1.457031.128907zm9.539063 42.3125 23.25-13.164063 21.386719 13.910156-22.183594 29.257813h-3.304688zm82.515625-24.382813c7.667969 2.304687 15.207031 5.007813 22.582031 8.097656l-1.421875 46.289063h-62.398437zm-176.878906-266.148437-14.34375-15.617188h462.574218l-14.140624 15.613281c-.386719-.035156-433.691407-.035156-434.089844.003907zm-23.933594-3.882813 13.097656 14.257813c-.082031.566406-.082031 314.191406.007813 314.777343l-13.105469 14.53125zm9.914062 354.972656 14.078126-15.613281c.378906.039062 433.890624.023438 434.394531-.039062l14.167969 15.652343zm472.085938-11.917969-13.050781-14.417968c.050781-.457032.035156-313.839844-.050781-314.421875l13.101562-14.464844zm0 0"/></svg>