<svg id="Capa_1" enable-background="new 0 0 512.007 512.007" height="512" viewBox="0 0 512.007 512.007" width="512" xmlns="http://www.w3.org/2000/svg"><g><g><g><path d="m193.468 242.983c-4.142 0-7.5-3.358-7.5-7.5v-12c0-4.142 3.358-7.5 7.5-7.5s7.5 3.358 7.5 7.5v12c0 4.143-3.358 7.5-7.5 7.5z"/></g><g><path d="m318.366 242.983c-4.142 0-7.5-3.358-7.5-7.5v-12c0-4.142 3.358-7.5 7.5-7.5s7.5 3.358 7.5 7.5v12c0 4.143-3.358 7.5-7.5 7.5z"/></g><path d="m285.01 235.138c-4.142 0-7.5 3.358-7.5 7.5 0 3.835-3.12 6.956-6.956 6.956s-6.956-3.12-6.956-6.956c0-4.142-3.358-7.5-7.5-7.5s-7.5 3.358-7.5 7.5c0 3.835-3.12 6.956-6.956 6.956s-6.956-3.12-6.956-6.956c0-4.142-3.358-7.5-7.5-7.5s-7.5 3.358-7.5 7.5c0 12.106 9.849 21.956 21.956 21.956 5.533 0 10.59-2.062 14.456-5.451 3.865 3.39 8.923 5.451 14.456 5.451 12.106 0 21.956-9.849 21.956-21.956 0-4.142-3.358-7.5-7.5-7.5z"/></g><g><path d="m511.255 188.161c-7.824-30.413-31.074-53.598-60.095-62.102-6.093-20.79-23.659-36.525-44.897-40.403-5.996-31.591-33.511-54.729-66.297-54.729-5.308 0-10.572.622-15.713 1.853-16.555-20.616-41.686-32.775-68.249-32.775s-51.694 12.159-68.249 32.775c-5.141-1.231-10.405-1.853-15.713-1.853-32.786 0-60.301 23.139-66.297 54.729-21.227 3.88-38.802 19.619-44.895 40.402-29.022 8.504-52.274 31.689-60.098 62.103-1.823 7.086-.296 14.467 4.189 20.252 4.487 5.788 11.259 9.107 18.58 9.107h12.767c-13.561 12.498-21.731 30.323-21.731 49.65 0 13.753 4.229 27.184 12.007 38.421-7.779 11.237-12.007 24.668-12.007 38.421 0 33.141 23.646 60.899 55.765 66.484 9.319 25.272 33.188 42.836 60.21 44.1 9.387 23.834 32.779 40.038 58.739 40.038 5.612 0 11.154-.738 16.531-2.199 13.727 12.653 31.379 19.568 50.202 19.568s36.475-6.915 50.202-19.568c5.377 1.46 10.919 2.199 16.531 2.199 25.959 0 49.352-16.204 58.739-40.038 27.022-1.264 50.891-18.828 60.21-44.1 32.119-5.585 55.765-33.344 55.765-66.484 0-13.753-4.229-27.184-12.007-38.421 7.779-11.237 12.007-24.668 12.007-38.421 0-19.294-8.188-37.138-21.757-49.65h12.793c7.321 0 14.093-3.319 18.58-9.107 4.484-5.785 6.011-13.166 4.188-20.252zm-398.362-88.317c.07-.005.139-.018.209-.025.976-.066 1.96-.106 2.934-.106 6.238 0 12.245 1.318 17.854 3.919 1.021.474 2.094.698 3.15.698 2.831 0 5.541-1.61 6.809-4.347 1.742-3.758.108-8.217-3.649-9.959-6.01-2.787-12.355-4.469-18.916-5.058 5.95-22.744 26.493-39.04 50.759-39.04 2.255 0 4.5.152 6.725.439-6.734 12.6-10.263 26.628-10.263 41.138 0 4.142 3.358 7.5 7.5 7.5s7.5-3.358 7.5-7.5c0-15.004 4.541-29.386 13.128-41.612.047-.062.103-.113.148-.177 13.596-19.23 35.736-30.711 59.225-30.711s45.629 11.481 59.225 30.711c.045.063.1.114.147.175 8.588 12.225 13.129 26.609 13.129 41.614 0 4.142 3.358 7.5 7.5 7.5s7.5-3.358 7.5-7.5c0-14.51-3.529-28.538-10.264-41.138 2.225-.287 4.47-.439 6.725-.439 24.266 0 44.808 16.296 50.759 39.039-6.563.589-12.91 2.271-18.922 5.059-3.758 1.742-5.392 6.201-3.649 9.959 1.269 2.737 3.979 4.347 6.809 4.347 1.056 0 2.129-.225 3.15-.698 5.608-2.601 11.616-3.919 17.854-3.919.977 0 1.965.04 2.945.106.068.007.135.019.204.024 14.932 1.093 28 10.078 34.659 22.978-2.4-.198-4.822-.302-7.264-.302-22.849 0-44.775 8.987-61.054 24.833-31.869-22.459-69.882-34.6-109.452-34.6-40.681 0-78.417 12.838-109.383 34.667-16.287-15.891-38.229-24.9-61.123-24.9-2.442 0-4.863.104-7.262.302 6.658-12.897 19.732-21.885 34.654-22.977zm-96.097 99.378c-1.623-2.093-2.176-4.763-1.517-7.324 8.236-32.017 37.111-54.378 70.218-54.378 18.237 0 35.743 6.904 49.061 19.137-15.671 13.023-29.219 28.513-40.058 45.863h-70.978c-2.65 0-5.102-1.203-6.726-3.298zm465.654 67.947c0 12.267-4.326 24.205-12.18 33.615-2.323 2.783-2.323 6.829 0 9.612 7.854 9.41 12.18 21.348 12.18 33.615 0 27.075-20.283 49.53-47.18 52.232-3.056.307-5.616 2.446-6.461 5.398-6.409 22.39-27.16 38.027-50.462 38.027-.6 0-1.193-.023-1.787-.045l-.173-.006c-3.426-.131-6.51 2.098-7.472 5.396-5.944 20.384-24.934 34.62-46.179 34.62-1.757 0-3.503-.105-5.237-.294 4.046-5.984 7.226-12.544 9.37-19.408 1.235-3.954-.969-8.16-4.922-9.395-3.948-1.234-8.16.968-9.395 4.922-2.687 8.599-7.413 16.603-13.668 23.167-.045.044-.096.08-.139.126-11.288 11.77-26.467 18.252-42.742 18.252s-31.454-6.482-42.742-18.252c-.044-.046-.095-.082-.14-.126-6.254-6.563-10.98-14.567-13.667-23.166-1.235-3.953-5.442-6.156-9.395-4.922-3.954 1.235-6.158 5.441-4.922 9.395 2.144 6.864 5.324 13.424 9.37 19.408-1.734.189-3.48.294-5.237.294-21.246 0-40.235-14.236-46.179-34.62-.961-3.297-4.042-5.518-7.472-5.396l-.173.006c-.594.021-1.188.045-1.787.045-23.302 0-44.053-15.637-50.462-38.027-.845-2.953-3.405-5.091-6.461-5.398-26.897-2.702-47.18-25.157-47.18-52.232 0-12.267 4.326-24.206 12.18-33.615 2.323-2.783 2.323-6.829 0-9.612-7.854-9.41-12.18-21.348-12.18-33.615 0-22.485 14.209-42.36 35.413-49.65h21.074c-13.001 25.729-20.338 54.787-20.338 85.53 0 23.653 7.771 45.351 23.096 64.491 1.481 1.85 3.66 2.813 5.859 2.813 1.644 0 3.299-.539 4.683-1.646 3.233-2.589 3.756-7.309 1.167-10.542-13.142-16.413-19.805-34.957-19.805-55.116 0-96.659 78.638-175.297 175.297-175.297 92.13 0 168.966 71.936 174.924 163.769.268 4.134 3.828 7.262 7.97 6.999 4.134-.268 7.267-3.836 6.999-7.97-1.669-25.725-8.481-50.486-19.836-73.031h20.991c21.183 7.292 35.4 27.215 35.4 49.649zm12.761-67.947c-1.625 2.095-4.076 3.297-6.726 3.297h-70.852c-8.638-13.853-19.11-26.665-31.261-38.096-2.881-2.71-5.84-5.31-8.86-7.82 13.31-12.197 30.8-19.083 48.998-19.083 33.107 0 61.982 22.361 70.218 54.378.659 2.562.106 5.231-1.517 7.324z"/><path d="m438.525 313.673c-4.066-.789-8.001 1.871-8.789 5.938-12.77 65.972-98.962 98.408-173.732 100.656-53.42-1.602-102.787-17.116-135.475-42.579-3.268-2.546-7.98-1.961-10.525 1.308-2.546 3.268-1.96 7.98 1.308 10.525 35.193 27.415 87.851 44.089 144.472 45.746.073.002.146.003.219.003s.146-.001.22-.003c44.375-1.299 87.211-12.032 120.618-30.222 37.761-20.56 61.144-49.117 67.622-82.583.787-4.067-1.872-8.002-5.938-8.789z"/></g></g></svg>