<svg id="Capa_1" enable-background="new 0 0 512.001 512.001" height="512" viewBox="0 0 512.001 512.001" width="512" xmlns="http://www.w3.org/2000/svg"><g><path d="m504.501 380.767h-8.532v-56.629c0-4.142-3.358-7.5-7.5-7.5h-56.629v-41.113h8.532c21.964 0 41.281-9.249 55.862-26.747 10.802-12.962 15.2-25.933 15.382-26.479 1.013-3.04-.017-6.387-2.563-8.332-2.547-1.944-6.047-2.056-8.712-.28-.222.147-22.591 14.772-59.969 14.772h-8.532v-25.463c18.86-1.879 35.466-10.888 48.362-26.364 10.802-12.962 15.2-25.932 15.382-26.478 1.01-3.031-.021-6.362-2.553-8.31-2.532-1.947-6.032-2.07-8.701-.316-.023.016-2.394 1.563-6.774 3.625-23.796 11.198-52.515 10.627-76.824-1.527l-16.989-8.494v-11.398c0-4.142-3.358-7.5-7.5-7.5s-7.5 3.358-7.5 7.5v8.532h-16.55c-4.142 0-7.5 3.358-7.5 7.5s3.358 7.5 7.5 7.5h22.278l19.553 9.776c24.223 12.111 52.256 14.345 77.308 6.574-8.692 11.716-23.618 24.763-46.992 24.763h-336.678c-23.633 0-38.545-13.081-47.167-24.817 25.097 7.837 53.203 5.62 77.483-6.52l19.552-9.776h182.596c4.142 0 7.5-3.358 7.5-7.5s-3.358-7.5-7.5-7.5h-176.867v-8.532c0-4.142-3.358-7.5-7.5-7.5s-7.5 3.358-7.5 7.5v11.398l-16.989 8.494c-24.31 12.155-53.028 12.726-76.824 1.527-4.38-2.062-6.75-3.609-6.753-3.611-2.666-1.777-6.167-1.665-8.712.28-2.546 1.945-3.576 5.292-2.563 8.332.182.546 4.58 13.516 15.382 26.478 12.897 15.476 29.502 24.486 48.362 26.364v25.463h-8.532c-29.655 0-52.207-9.672-59.969-14.772-2.666-1.778-6.167-1.665-8.712.28-2.546 1.945-3.576 5.292-2.563 8.332.182.546 4.58 13.516 15.382 26.479 14.582 17.498 33.898 26.747 55.862 26.747h8.532v41.113h-8.529c-4.142 0-7.5 3.358-7.5 7.5s3.358 7.5 7.5 7.5h101.401l-18.423 49.129h-123.578v-49.129h8.529c4.142 0 7.5-3.358 7.5-7.5s-3.358-7.5-7.5-7.5h-16.029c-4.142 0-7.5 3.358-7.5 7.5v56.629h-8.532c-4.142 0-7.5 3.358-7.5 7.5s3.358 7.5 7.5 7.5h497c4.142 0 7.5-3.358 7.5-7.5s-3.358-7.5-7.5-7.5zm-23.533 0h-123.577l-18.423-49.129h142zm-304.612-105.242v41.113h-33.097v-41.113zm15 0h33.097v41.113h-33.097zm81.193 0v41.113h-33.097v-41.113zm48.097 0v41.113h-33.097v-41.113zm48.096 0v41.113h-33.097v-41.113zm-81.193 56.113h35.399l6.399 17.064h-41.798zm-63.097 0v17.064h-41.798l6.399-17.064zm15 0h33.097v49.129h-33.097zm48.097 32.064h47.423l6.399 17.064h-53.823v-17.064zm129.29-47.064h-33.097v-41.113h33.097zm-33.097-88.178v-25.081h33.097v25.081zm-48.096 0v-25.081h33.097v25.081zm-48.097 0v-25.081h33.097v25.081zm-48.097 0v-25.081h33.097v25.081zm-48.096 0v-25.081h33.097v25.081zm-48.097 0v-25.081h33.097v25.081zm-48.097-25.081h33.097v25.081h-33.097zm-70.53 32.559c11.553 3.918 27.483 7.522 46.997 7.522h368.742c19.412 0 35.276-3.565 46.814-7.46-8.717 11.654-23.601 24.525-46.814 24.525h-368.742c-23.479 0-38.35-12.911-46.997-24.587zm70.53 39.587h33.097v41.113h-33.097zm81.867 88.177h47.423v17.064h-53.822z"/></g></svg>