<?xml version="1.0" encoding="iso-8859-1"?>
<!-- Generator: Adobe Illustrator 22.1.0, SVG Export Plug-In . SVG Version: 6.00 Build 0)  -->
<svg xmlns="http://www.w3.org/2000/svg" xmlns:xlink="http://www.w3.org/1999/xlink" version="1.1" id="Layer_3" x="0px" y="0px" viewBox="0 0 64 64" style="enable-background:new 0 0 64 64;" xml:space="preserve" width="512" height="512">
<g>
	<path d="M24,19.048V9h1c0.553,0,1-0.447,1-1V2c0-0.553-0.447-1-1-1H7C6.447,1,6,1.447,6,2v6c0,0.553,0.447,1,1,1h1v10.048   c-1.765,0.191-3.446,0.984-4.707,2.245C1.836,22.75,1,24.768,1,26.828v24.344c0,2.061,0.836,4.078,2.293,5.535   c0.468,0.468,0.999,0.865,1.566,1.197C4.329,58.446,4,59.184,4,60c0,1.654,1.346,3,3,3s3-1.346,3-3c0-0.352-0.072-0.686-0.184-1   h12.369C22.072,59.314,22,59.648,22,60c0,1.654,1.346,3,3,3s3-1.346,3-3c0-0.816-0.329-1.554-0.859-2.096   c0.567-0.333,1.098-0.729,1.566-1.197C30.164,55.25,31,53.232,31,51.172V26.828c0-2.061-0.836-4.078-2.293-5.535   C27.446,20.032,25.765,19.239,24,19.048z M12,21h8v4h-8V21z M8,3h16v4h-1H9H8V3z M22,9v10h-1H11h-1V9H22z M3,51.172V31h2v24.558   c-0.099-0.086-0.2-0.172-0.293-0.265C3.622,54.208,3,52.706,3,51.172z M23.172,57H23V31h2v25.697   C24.413,56.892,23.796,57,23.172,57z M21,57h-2V31h2V57z M17,57h-2V31h2V57z M13,57h-2V31h2V57z M9,57H8.828   C8.204,57,7.587,56.892,7,56.697V31h2V57z M7,61c-0.552,0-1-0.448-1-1s0.448-1,1-1s1,0.448,1,1S7.552,61,7,61z M25,61   c-0.552,0-1-0.448-1-1s0.448-1,1-1s1,0.448,1,1S25.552,61,25,61z M27.293,55.293C27.2,55.386,27.099,55.471,27,55.558V31h2v20.172   C29,52.706,28.378,54.208,27.293,55.293z M29,29H3v-2.172c0-1.534,0.622-3.036,1.707-4.121S7.294,21,8.828,21H10v5   c0,0.553,0.447,1,1,1h10c0.553,0,1-0.447,1-1v-5h1.172c1.534,0,3.036,0.622,4.121,1.707S29,25.294,29,26.828V29z"/>
	<path d="M60.707,21.293C59.25,19.836,57.232,19,55.172,19H55v-3c0-0.553-0.447-1-1-1H42c-0.553,0-1,0.447-1,1v3h-0.172   c-2.061,0-4.078,0.836-5.535,2.293S33,24.768,33,26.828v24.344c0,2.061,0.836,4.078,2.293,5.535   c0.468,0.468,0.999,0.865,1.566,1.197C36.329,58.446,36,59.184,36,60c0,1.654,1.346,3,3,3s3-1.346,3-3c0-0.352-0.072-0.686-0.184-1   h12.369C54.072,59.314,54,59.648,54,60c0,1.654,1.346,3,3,3s3-1.346,3-3c0-0.816-0.329-1.554-0.859-2.096   c0.567-0.333,1.098-0.729,1.566-1.197C62.164,55.25,63,53.232,63,51.172V26.828C63,24.768,62.164,22.75,60.707,21.293z M43,17h10v2   h-1h-8h-1V17z M45,21h6v4h-6V21z M36.707,22.707C37.792,21.622,39.294,21,40.828,21H42h1v5c0,0.553,0.447,1,1,1h8   c0.553,0,1-0.447,1-1v-5h1h1.172c1.534,0,3.036,0.622,4.121,1.707S61,25.294,61,26.828V29H39h-2h-2v-2.172   C35,25.294,35.622,23.792,36.707,22.707z M40.828,57c-0.624,0-1.241-0.108-1.828-0.303V31h2v26H40.828z M43,31h2v26h-2V31z M47,31   h2v26h-2V31z M51,31h2v26h-2V31z M55.172,57H55V31h2v25.697C56.413,56.892,55.796,57,55.172,57z M35,51.172V31h2v24.558   c-0.099-0.086-0.2-0.172-0.293-0.265C35.622,54.208,35,52.706,35,51.172z M39,61c-0.552,0-1-0.448-1-1s0.448-1,1-1s1,0.448,1,1   S39.552,61,39,61z M57,61c-0.552,0-1-0.448-1-1s0.448-1,1-1s1,0.448,1,1S57.552,61,57,61z M59.293,55.293   C59.2,55.386,59.099,55.471,59,55.558V31h2v20.172C61,52.706,60.378,54.208,59.293,55.293z"/>
	<path d="M33.686,19.728l5.044-4.75C39.549,14.206,40,13.175,40,12.075s-0.451-2.131-1.271-2.903   c-1.423-1.338-3.667-1.553-5.27-0.541l-0.462,0.241l-0.39-0.202c-1.669-1.048-3.914-0.839-5.338,0.503   C26.451,9.944,26,10.976,26,12.075s0.451,2.131,1.271,2.902l5.044,4.75C32.507,19.909,32.754,20,33,20S33.493,19.909,33.686,19.728   z M28.642,13.522C28.229,13.132,28,12.618,28,12.075s0.229-1.057,0.642-1.446c0.434-0.409,1.01-0.623,1.605-0.623   c0.463,0,0.938,0.13,1.365,0.396l0.924,0.483c0.291,0.152,0.637,0.152,0.928,0l0.992-0.522c0.912-0.573,2.132-0.459,2.902,0.265   C37.771,11.019,38,11.532,38,12.075s-0.229,1.057-0.642,1.447L33,17.626L28.642,13.522z"/>
	<path d="M38.13,6.26l3.252,2.529C41.562,8.93,41.779,9,41.996,9s0.434-0.07,0.614-0.211l3.252-2.529   c0.674-0.524,1.087-1.309,1.134-2.151c0.046-0.841-0.276-1.663-0.886-2.255c-1.13-1.099-2.943-1.132-4.114-0.105   c-1.172-1.028-2.986-0.993-4.114,0.105c-0.609,0.592-0.932,1.414-0.886,2.255C37.043,4.951,37.456,5.735,38.13,6.26z M39.276,3.287   c0.198-0.193,0.459-0.289,0.72-0.289s0.521,0.096,0.72,0.289l0.583,0.567c0.389,0.377,1.006,0.377,1.395,0l0.583-0.567   c0.396-0.387,1.043-0.385,1.439,0c0.197,0.191,0.298,0.444,0.283,0.711c-0.015,0.27-0.145,0.512-0.365,0.684l-2.638,2.052   l-2.638-2.052c-0.221-0.172-0.351-0.414-0.365-0.684C38.979,3.731,39.079,3.479,39.276,3.287z"/>
</g>
</svg>
